<svg xmlns="http://www.w3.org/2000/svg" width="700" height="700" viewBox="0 0 700 700">
<rect width="700" height="700" fill="white"/>
<text x="350" y="35" text-anchor="middle" font-family="Arial" font-size="22">Final 4-Router LSA Topology</text>
<line x1="600.0" y1="350.0" x2="100.0" y2="350.0" stroke="#6c757d" stroke-width="3"/>
<rect x="336.0" y="337.0" width="28" height="22" rx="4" fill="white" stroke="#adb5bd"/>
<text x="350.0" y="355.0" text-anchor="middle" font-family="Arial" font-size="14">5</text>
<line x1="600.0" y1="350.0" x2="350.0" y2="600.0" stroke="#6c757d" stroke-width="3"/>
<rect x="461.0" y="462.0" width="28" height="22" rx="4" fill="white" stroke="#adb5bd"/>
<text x="475.0" y="480.0" text-anchor="middle" font-family="Arial" font-size="14">2</text>
<line x1="350.0" y1="600.0" x2="350.0" y2="100.0" stroke="#6c757d" stroke-width="3"/>
<rect x="336.0" y="337.0" width="28" height="22" rx="4" fill="white" stroke="#adb5bd"/>
<text x="350.0" y="355.0" text-anchor="middle" font-family="Arial" font-size="14">1</text>
<line x1="100.0" y1="350.0" x2="350.0" y2="100.0" stroke="#6c757d" stroke-width="3"/>
<rect x="211.0" y="212.0" width="28" height="22" rx="4" fill="white" stroke="#adb5bd"/>
<text x="225.0" y="230.0" text-anchor="middle" font-family="Arial" font-size="14">2</text>
<circle cx="600.0" cy="350.0" r="34" fill="#2b8a3e"/>
<text x="600.0" y="356.0" text-anchor="middle" font-family="Arial" font-size="20" font-weight="bold" fill="white">0</text>
<circle cx="350.0" cy="600.0" r="34" fill="#2b8a3e"/>
<text x="350.0" y="606.0" text-anchor="middle" font-family="Arial" font-size="20" font-weight="bold" fill="white">1</text>
<circle cx="100.0" cy="350.0" r="34" fill="#2b8a3e"/>
<text x="100.0" y="356.0" text-anchor="middle" font-family="Arial" font-size="20" font-weight="bold" fill="white">2</text>
<circle cx="350.0" cy="100.0" r="34" fill="#2b8a3e"/>
<text x="350.0" y="106.0" text-anchor="middle" font-family="Arial" font-size="20" font-weight="bold" fill="white">3</text>
</svg>